<!DOCTYPE svg PUBLIC "-//W3C//DTD SVG 1.1//EN" "http://www.w3.org/Graphics/SVG/1.1/DTD/svg11.dtd">

<!-- Uploaded to: SVG Repo, www.svgrepo.com, Transformed by: SVG Repo Mixer Tools -->
<svg width="32px" height="32px" viewBox="0 0 512 512" xmlns="http://www.w3.org/2000/svg" fill="#ABB2BF">

<g id="SVGRepo_bgCarrier" stroke-width="0"/>

<g id="SVGRepo_tracerCarrier" stroke-linecap="round" stroke-linejoin="round"/>

<g id="SVGRepo_iconCarrier"> <path fill="var(--ci-primary-color, #ABB2BF)" d="M253.924,127.592a64,64,0,1,0,64,64A64.073,64.073,0,0,0,253.924,127.592Zm0,96a32,32,0,1,1,32-32A32.037,32.037,0,0,1,253.924,223.592Z" class="ci-primary"/> <path fill="var(--ci-primary-color, #ABB2BF)" d="M376.906,68.515A173.922,173.922,0,0,0,108.2,286.426L229.107,472.039a29.619,29.619,0,0,0,49.635,0L399.653,286.426A173.921,173.921,0,0,0,376.906,68.515Zm-4.065,200.444L253.925,451.509,135.008,268.959C98.608,213.08,106.415,138.3,153.571,91.142a141.92,141.92,0,0,1,200.708,0C401.435,138.3,409.241,213.08,372.841,268.959Z" class="ci-primary"/> </g>

</svg>